<?xml version="1.0" encoding="utf-8"?>
<!-- Generator: Adobe Illustrator 19.0.0, SVG Export Plug-In . SVG Version: 6.00 Build 0)  -->
<svg version="1.1" id="Layer_1" xmlns="http://www.w3.org/2000/svg" xmlns:xlink="http://www.w3.org/1999/xlink" x="0px" y="0px"
	 viewBox="0 0 2000 1200" style="enable-background:new 0 0 2000 1200;" xml:space="preserve">
<style type="text/css">
	.st0{fill:none;stroke:#B3B3B3;stroke-miterlimit:10;}
	.st1{fill:#DA2128;}
</style>
<g id="XMLID_5_">
	<g id="XMLID_2_">
		<line id="XMLID_1_" class="st0" x1="1358" y1="231.5" x2="1509" y2="231.5"/>
		<line id="XMLID_4_" class="st0" x1="1584" y1="155.5" x2="2089" y2="155.5"/>
		<line id="XMLID_3_" class="st0" x1="1509" y1="231.5" x2="1584.4" y2="155.9"/>
	</g>
	<line id="XMLID_9_" class="st0" x1="1366" y1="268.5" x2="1524.4" y2="269.9"/>
	<line id="XMLID_8_" class="st0" x1="1600" y1="193.5" x2="2089" y2="193.5"/>
	<line id="XMLID_7_" class="st0" x1="1524.4" y1="269.9" x2="1599.8" y2="194.3"/>
	<circle id="XMLID_10_" class="st1" cx="1359" cy="231.5" r="7"/>
	<circle id="XMLID_12_" class="st1" cx="1359" cy="268.5" r="7"/>
	<g id="XMLID_14_">
		<g id="XMLID_17_">
			<g id="XMLID_22_">
				<line id="XMLID_25_" class="st0" x1="389" y1="1066.5" x2="321" y2="1066.5"/>
				<line id="XMLID_24_" class="st0" x1="246" y1="1142.5" x2="-259" y2="1142.5"/>
				<line id="XMLID_23_" class="st0" x1="321" y1="1066.5" x2="245.6" y2="1142.1"/>
			</g>
			<g id="XMLID_18_">
				<line id="XMLID_21_" class="st0" x1="472" y1="1028.5" x2="305.6" y2="1028.1"/>
				<line id="XMLID_20_" class="st0" x1="230" y1="1104.5" x2="-259" y2="1104.5"/>
				<line id="XMLID_19_" class="st0" x1="305.6" y1="1028.1" x2="230.2" y2="1103.7"/>
			</g>
		</g>
		<circle id="XMLID_16_" class="st1" cx="395" cy="1066.5" r="7"/>
		<circle id="XMLID_15_" class="st1" cx="471" cy="1029.5" r="7"/>
	</g>
	<g id="XMLID_26_">
		<g id="XMLID_29_">
			<g id="XMLID_34_">
				<line id="XMLID_37_" class="st0" x1="1756" y1="952.5" x2="1845" y2="952.5"/>
				<line id="XMLID_36_" class="st0" x1="1920" y1="876.5" x2="2425" y2="876.5"/>
				<line id="XMLID_35_" class="st0" x1="1845" y1="952.5" x2="1920.4" y2="876.9"/>
			</g>
			<g id="XMLID_30_">
				<line id="XMLID_33_" class="st0" x1="1694" y1="990.5" x2="1860.4" y2="990.9"/>
				<line id="XMLID_32_" class="st0" x1="1936" y1="914.5" x2="2425" y2="914.5"/>
				<line id="XMLID_31_" class="st0" x1="1860.4" y1="990.9" x2="1935.8" y2="915.3"/>
			</g>
		</g>
		<circle id="XMLID_28_" class="st1" cx="1756" cy="952.5" r="7"/>
		<circle id="XMLID_27_" class="st1" cx="1695" cy="989.5" r="7"/>
	</g>
</g>
</svg>
