<?xml version="1.0" encoding="utf-8"?>
<!-- Generator: Adobe Illustrator 19.0.0, SVG Export Plug-In . SVG Version: 6.00 Build 0)  -->
<svg version="1.1" id="Layer_1" xmlns="http://www.w3.org/2000/svg" xmlns:xlink="http://www.w3.org/1999/xlink" x="0px" y="0px"
	 viewBox="0 0 960 437" style="enable-background:new 0 0 960 437;" xml:space="preserve">
<style type="text/css">
	.st0{fill:#EC1C24;}
	.st1{opacity:0.22;}
	.st2{clip-path:url(#XMLID_88_);}
	.st3{clip-path:url(#XMLID_89_);fill:url(#XMLID_90_);}
	.st4{clip-path:url(#XMLID_91_);fill:url(#XMLID_92_);}
	.st5{clip-path:url(#XMLID_93_);fill:url(#XMLID_94_);}
	.st6{clip-path:url(#XMLID_95_);fill:url(#XMLID_96_);}
	.st7{clip-path:url(#XMLID_97_);fill:url(#XMLID_98_);}
	.st8{clip-path:url(#XMLID_99_);fill:url(#XMLID_100_);}
	.st9{clip-path:url(#XMLID_101_);fill:url(#XMLID_102_);}
	.st10{clip-path:url(#XMLID_103_);fill:url(#XMLID_104_);}
</style>
<g id="XMLID_1_">
	<path id="XMLID_60_" class="st0" d="M24.1,316.9c-1.6,1.6-4.3,1.6-5.9,0c-1.6-1.6-1.6-4.3,0-5.9c1.6-1.6,4.3-1.6,5.9,0
		C25.7,312.6,25.7,315.3,24.1,316.9"/>
	<path id="XMLID_59_" class="st0" d="M176,315.7c-2.3,0-4.2-1.9-4.2-4.2c0-2.3,1.9-4.2,4.2-4.2c2.3,0,4.2,1.9,4.2,4.2
		C180.2,313.8,178.3,315.7,176,315.7"/>
	<path id="XMLID_58_" class="st0" d="M88.4,334.9c-2.3,0-4.2-1.9-4.2-4.2c0-2.3,1.9-4.2,4.2-4.2c2.3,0,4.2,1.9,4.2,4.2
		C92.6,333.1,90.7,334.9,88.4,334.9"/>
	<path id="XMLID_57_" class="st0" d="M137.8,354.2c-2.3,0-4.2-1.9-4.2-4.2c0-2.3,1.9-4.2,4.2-4.2c2.3,0,4.2,1.9,4.2,4.2
		C142,352.4,140.1,354.2,137.8,354.2"/>
	<path id="XMLID_56_" class="st0" d="M21.1,397.1c-1.6,1.6-4.3,1.6-5.9,0s-1.6-4.3,0-5.9c1.6-1.6,4.3-1.6,5.9,0
		C22.8,392.8,22.8,395.4,21.1,397.1"/>
	<path id="XMLID_55_" class="st0" d="M115.4,277.1c-2.3,0-4.2-1.9-4.2-4.2c0-2.3,1.9-4.2,4.2-4.2c2.3,0,4.2,1.9,4.2,4.2
		C119.6,275.2,117.7,277.1,115.4,277.1"/>
	<path id="XMLID_54_" class="st0" d="M47.1,257.8c-2.3,0-4.2-1.9-4.2-4.2c0-2.3,1.9-4.2,4.2-4.2c2.3,0,4.2,1.9,4.2,4.2
		C51.3,255.9,49.4,257.8,47.1,257.8"/>
	<g id="XMLID_27_" class="st1">
		<g id="XMLID_28_">
			<defs>
				<rect id="XMLID_29_" x="0.3" y="148" width="1188.9" height="283.1"/>
			</defs>
			<clipPath id="XMLID_88_">
				<use xlink:href="#XMLID_29_"  style="overflow:visible;"/>
			</clipPath>
			<g id="XMLID_51_" class="st2">
				<defs>
					<polygon id="XMLID_52_" points="42.5,291.2 269,291.2 326.3,218.8 511.4,218.8 643.7,351 880.8,351 927.5,304.3 1081.2,304.3 
						1154.3,231.3 1172.3,231.3 1172.3,233.1 1155,233.1 1082,306.2 928.3,306.2 881.6,352.9 642.9,352.9 510.7,220.7 327.2,220.7 
						269.9,293.1 43.3,293.1 21.6,314.8 20.3,313.5 					"/>
				</defs>
				<clipPath id="XMLID_89_">
					<use xlink:href="#XMLID_52_"  style="overflow:visible;"/>
				</clipPath>
				
					<linearGradient id="XMLID_90_" gradientUnits="userSpaceOnUse" x1="60.6761" y1="578.1866" x2="61.6761" y2="578.1866" gradientTransform="matrix(-1151.9482 0 0 -1151.9482 71067.9844 666326.9375)">
					<stop  offset="0" style="stop-color:#77797C"/>
					<stop  offset="2.290910e-002" style="stop-color:#77797C"/>
					<stop  offset="1" style="stop-color:#BBBDBF"/>
				</linearGradient>
				<rect id="XMLID_53_" x="20.3" y="218.8" class="st3" width="1151.9" height="134.1"/>
			</g>
			<g id="XMLID_48_" class="st2">
				<defs>
					<polygon id="XMLID_49_" points="278.4,310.5 335.6,238.1 503.5,238.1 635.7,370.3 888.8,370.3 935.5,323.6 1089.2,323.6 
						1162.3,250.5 1172.3,250.5 1172.3,252.4 1163,252.4 1090,325.4 936.3,325.4 889.6,372.2 634.9,372.2 502.7,240 336.5,240 
						279.3,312.4 175.8,312.4 175.8,310.5 					"/>
				</defs>
				<clipPath id="XMLID_91_">
					<use xlink:href="#XMLID_49_"  style="overflow:visible;"/>
				</clipPath>
				
					<linearGradient id="XMLID_92_" gradientUnits="userSpaceOnUse" x1="60.7816" y1="578.2158" x2="61.7816" y2="578.2158" gradientTransform="matrix(-996.4694 0 0 -996.4694 61739.2578 576479.4375)">
					<stop  offset="0" style="stop-color:#77797C"/>
					<stop  offset="2.290910e-002" style="stop-color:#77797C"/>
					<stop  offset="1" style="stop-color:#BBBDBF"/>
				</linearGradient>
				<rect id="XMLID_50_" x="175.8" y="238.1" class="st4" width="996.5" height="134.1"/>
			</g>
			<g id="XMLID_45_" class="st2">
				<defs>
					<polygon id="XMLID_46_" points="287.7,329.8 345,257.4 495.5,257.4 627.7,389.6 896.8,389.6 943.5,342.9 1097.2,342.9 
						1170.3,269.8 1172.3,269.8 1172.3,271.7 1171,271.7 1098,344.7 944.3,344.7 897.6,391.5 626.9,391.5 494.7,259.3 345.9,259.3 
						288.6,331.7 88.2,331.7 88.2,329.8 					"/>
				</defs>
				<clipPath id="XMLID_93_">
					<use xlink:href="#XMLID_46_"  style="overflow:visible;"/>
				</clipPath>
				
					<linearGradient id="XMLID_94_" gradientUnits="userSpaceOnUse" x1="60.7185" y1="578.1983" x2="61.7185" y2="578.1983" gradientTransform="matrix(-1084.0454 0 0 -1084.0454 66993.8203 627117.6875)">
					<stop  offset="0" style="stop-color:#77797C"/>
					<stop  offset="2.290910e-002" style="stop-color:#77797C"/>
					<stop  offset="1" style="stop-color:#BBBDBF"/>
				</linearGradient>
				<rect id="XMLID_47_" x="88.2" y="257.4" class="st5" width="1084" height="134.1"/>
			</g>
			<g id="XMLID_42_" class="st2">
				<defs>
					<polygon id="XMLID_43_" points="297.1,349.1 354.3,276.7 487.5,276.7 619.7,408.9 904.8,408.9 951.5,362.2 1105.2,362.2 
						1172.3,295.1 1172.3,297.7 1106,364 952.3,364 905.5,410.8 618.9,410.8 486.7,278.6 355.2,278.6 298,351 137.6,351 
						137.6,349.1 					"/>
				</defs>
				<clipPath id="XMLID_95_">
					<use xlink:href="#XMLID_43_"  style="overflow:visible;"/>
				</clipPath>
				
					<linearGradient id="XMLID_96_" gradientUnits="userSpaceOnUse" x1="60.7528" y1="578.2078" x2="61.7528" y2="578.2078" gradientTransform="matrix(-1034.6484 0 0 -1034.6484 64030 598585.5)">
					<stop  offset="0" style="stop-color:#77797C"/>
					<stop  offset="2.290910e-002" style="stop-color:#77797C"/>
					<stop  offset="1" style="stop-color:#BBBDBF"/>
				</linearGradient>
				<rect id="XMLID_44_" x="137.6" y="276.7" class="st6" width="1034.6" height="134.1"/>
			</g>
			<g id="XMLID_39_" class="st2">
				<defs>
					<polygon id="XMLID_40_" points="42.5,368.4 306.4,368.4 363.7,296 479.5,296 611.7,428.2 912.8,428.2 959.5,381.5 
						1113.2,381.5 1172.3,322.4 1172.3,325 1114,383.3 960.3,383.3 913.5,430.1 610.9,430.1 478.7,297.8 364.6,297.8 307.3,370.3 
						43.3,370.3 18.6,394.9 17.3,393.6 					"/>
				</defs>
				<clipPath id="XMLID_97_">
					<use xlink:href="#XMLID_40_"  style="overflow:visible;"/>
				</clipPath>
				
					<linearGradient id="XMLID_98_" gradientUnits="userSpaceOnUse" x1="60.6744" y1="578.1862" x2="61.6744" y2="578.1862" gradientTransform="matrix(-1154.916 0 0 -1154.916 71246.0547 668119.4375)">
					<stop  offset="0" style="stop-color:#77797C"/>
					<stop  offset="2.290910e-002" style="stop-color:#77797C"/>
					<stop  offset="1" style="stop-color:#BBBDBF"/>
				</linearGradient>
				<rect id="XMLID_41_" x="17.3" y="296" class="st7" width="1154.9" height="134.1"/>
			</g>
			<g id="XMLID_36_" class="st2">
				<defs>
					<polygon id="XMLID_37_" points="259.7,272 317,199.5 519.4,199.5 651.6,331.7 872.8,331.7 919.6,285 1073.2,285 1146.3,212 
						1172.3,212 1172.3,213.8 1147.1,213.8 1074,286.9 920.3,286.9 873.6,333.6 650.9,333.6 518.7,201.4 317.9,201.4 260.6,273.8 
						115.1,273.8 115.1,272 					"/>
				</defs>
				<clipPath id="XMLID_99_">
					<use xlink:href="#XMLID_37_"  style="overflow:visible;"/>
				</clipPath>
				
					<linearGradient id="XMLID_100_" gradientUnits="userSpaceOnUse" x1="60.7368" y1="578.2034" x2="61.7368" y2="578.2034" gradientTransform="matrix(-1057.1014 0 0 -1057.1014 65377.1797 611486.1875)">
					<stop  offset="0" style="stop-color:#77797C"/>
					<stop  offset="2.290910e-002" style="stop-color:#77797C"/>
					<stop  offset="1" style="stop-color:#BBBDBF"/>
				</linearGradient>
				<rect id="XMLID_38_" x="115.1" y="199.5" class="st8" width="1057.1" height="134.1"/>
			</g>
			<g id="XMLID_33_" class="st2">
				<defs>
					<polygon id="XMLID_34_" points="250.4,252.7 307.6,180.2 527.4,180.2 659.6,312.5 864.8,312.5 911.6,265.7 1065.2,265.7 
						1138.3,192.7 1172.3,192.7 1172.3,194.5 1139.1,194.5 1066,267.6 912.3,267.6 865.6,314.3 658.9,314.3 526.7,182.1 
						308.5,182.1 251.3,254.5 46.9,254.5 46.9,252.7 					"/>
				</defs>
				<clipPath id="XMLID_101_">
					<use xlink:href="#XMLID_34_"  style="overflow:visible;"/>
				</clipPath>
				
					<linearGradient id="XMLID_102_" gradientUnits="userSpaceOnUse" x1="60.6921" y1="578.191" x2="61.6921" y2="578.191" gradientTransform="matrix(-1125.364 0 0 -1125.364 69472.9297 650922.6875)">
					<stop  offset="0" style="stop-color:#77797C"/>
					<stop  offset="2.290910e-002" style="stop-color:#77797C"/>
					<stop  offset="1" style="stop-color:#BBBDBF"/>
				</linearGradient>
				<rect id="XMLID_35_" x="46.9" y="180.2" class="st9" width="1125.4" height="134.1"/>
			</g>
			<g id="XMLID_30_" class="st2">
				<defs>
					<polygon id="XMLID_31_" points="152.5,199.1 186.8,233.4 241,233.4 298.3,161 535.4,161 667.6,293.2 856.8,293.2 903.6,246.4 
						1057.2,246.4 1130.3,173.4 1172.3,173.4 1172.3,175.2 1131.1,175.2 1058,248.3 904.3,248.3 856.3,296.4 855,295 855,295 
						666.8,295 534.6,162.8 299.2,162.8 241.9,235.2 186,235.2 151.2,200.4 					"/>
				</defs>
				<clipPath id="XMLID_103_">
					<use xlink:href="#XMLID_31_"  style="overflow:visible;"/>
				</clipPath>
				
					<linearGradient id="XMLID_104_" gradientUnits="userSpaceOnUse" x1="60.7628" y1="578.2112" x2="61.7628" y2="578.2112" gradientTransform="matrix(-1021.0611 0 0 -1021.0611 63214.7578 590617.625)">
					<stop  offset="0" style="stop-color:#77797C"/>
					<stop  offset="2.290910e-002" style="stop-color:#77797C"/>
					<stop  offset="1" style="stop-color:#BBBDBF"/>
				</linearGradient>
				<rect id="XMLID_32_" x="151.2" y="161" class="st10" width="1021.1" height="135.4"/>
			</g>
		</g>
	</g>
	<path id="XMLID_26_" class="st0" d="M155,196.9c-1.6-1.6-4.3-1.6-5.9,0c-1.6,1.6-1.6,4.3,0,5.9c1.6,1.6,4.3,1.6,5.9,0
		C156.6,201.2,156.6,198.6,155,196.9"/>
	<polygon id="XMLID_25_" class="st0" points="698.1,405.9 704.8,409.7 698.1,413.6 	"/>
	<polygon id="XMLID_24_" class="st0" points="900.6,394.5 893.2,390.2 900.6,385.9 	"/>
	<path id="XMLID_23_" class="st0" d="M369.2,297.1c0,2.8-2.2,5-5,5c-2.8,0-5-2.2-5-5c0-2.8,2.2-5,5-5
		C367,292.1,369.2,294.3,369.2,297.1"/>
	<path id="XMLID_22_" class="st0" d="M574.1,387.4c0,3-2.4,5.3-5.3,5.3c-2.9,0-5.3-2.4-5.3-5.3c0-2.9,2.4-5.3,5.3-5.3
		C571.8,382.1,574.1,384.4,574.1,387.4"/>
	<path id="XMLID_19_" class="st0" d="M436.7,212.7c-3.9,0-7.1,3.2-7.1,7.1c0,3.9,3.2,7.1,7.1,7.1c3.9,0,7.1-3.2,7.1-7.1
		C443.8,215.9,440.6,212.7,436.7,212.7 M436.7,213.7c3.4,0,6.1,2.7,6.1,6.1c0,3.4-2.7,6.1-6.1,6.1c-3.4,0-6.1-2.7-6.1-6.1
		C430.6,216.4,433.3,213.7,436.7,213.7"/>
	<path id="XMLID_16_" class="st0" d="M741.3,323.6c-3.4,0-6.2,2.8-6.2,6.2c0,3.4,2.8,6.2,6.2,6.2c3.4,0,6.2-2.8,6.2-6.2
		C747.5,326.3,744.7,323.6,741.3,323.6 M741.3,326.3c1.9,0,3.5,1.6,3.5,3.5c0,1.9-1.6,3.5-3.5,3.5c-1.9,0-3.5-1.6-3.5-3.5
		C737.9,327.8,739.4,326.3,741.3,326.3"/>
	<path id="XMLID_13_" class="st0" d="M812.2,285.4c-4.7,0-8.6,3.9-8.6,8.6c0,4.8,3.8,8.6,8.6,8.6c4.7,0,8.6-3.9,8.6-8.6
		C820.8,289.2,816.9,285.4,812.2,285.4 M812.2,289.2c2.7,0,4.8,2.2,4.8,4.8c0,2.7-2.2,4.8-4.8,4.8c-2.7,0-4.8-2.2-4.8-4.8
		C807.3,291.3,809.5,289.2,812.2,289.2"/>
	<path id="XMLID_10_" class="st0" d="M537.8,280.4c-3.8,0-6.8,3-6.8,6.8c0,3.8,3,6.8,6.8,6.8c3.8,0,6.8-3,6.8-6.8
		C544.6,283.4,541.5,280.4,537.8,280.4 M537.8,283.4c2.1,0,3.8,1.7,3.8,3.8c0,2.1-1.7,3.8-3.8,3.8c-2.1,0-3.8-1.7-3.8-3.8
		C533.9,285.1,535.7,283.4,537.8,283.4"/>
	<path id="XMLID_7_" class="st0" d="M636.3,334.6h-9.2v9.1h9.2V334.6z M633.8,341.2h-4.1v-4.1h4.1V341.2z"/>
	<path id="XMLID_4_" class="st0" d="M792.6,386.7h-7.4v7.4h7.4V386.7z M790.6,392.1h-3.3v-3.3h3.3V392.1z"/>
	<rect id="XMLID_3_" x="853.4" y="291.2" class="st0" width="6.1" height="6.1"/>
	<rect id="XMLID_2_" x="584" y="211.3" class="st0" width="9.1" height="9.1"/>
</g>
</svg>
